<svg
   xmlns:dc="http://purl.org/dc/elements/1.1/"
   xmlns:cc="http://creativecommons.org/ns#"
   xmlns:rdf="http://www.w3.org/1999/02/22-rdf-syntax-ns#"
   xmlns:svg="http://www.w3.org/2000/svg"
   xmlns="http://www.w3.org/2000/svg"
   xmlns:xlink="http://www.w3.org/1999/xlink"
   id="svg8"
   version="1.1"
   viewBox="0 0 85.724996 150.81251"
   height="570"
   width="324">
  <defs
     id="defs2">
    <style
       id="style2">.cls-1{fill:#2d2d2d;}.cls-2{fill:#535aa2;}</style>
    <mask
       id="mask4799"
       maskUnits="objectBoundingBox">
      <rect
         ry="1.6862301"
         rx="1.5875"
         y="146.10149"
         x="-0.095204093"
         height="91.056427"
         width="85.724998"
         id="rect4801"
         style="fill:white;fill-rule:evenodd;stroke-width:10.30627155;stroke-linecap:square;stroke-linejoin:round;paint-order:stroke markers fill" />
    </mask>
    <mask
       id="mask4803"
       maskUnits="objectBoundingBox">
      <circle
         r="6.3499999"
         cy="246.2"
         cx="12.7"
         id="circle4805"
         style="fill:white;fill-opacity:1;fill-rule:evenodd;stroke-width:10;stroke-linecap:square;stroke-linejoin:round;paint-order:stroke markers fill" />
    </mask>
  </defs>
  <metadata
     id="metadata5">
    <rdf:RDF>
      <cc:Work
         rdf:about="">
        <dc:format>image/svg+xml</dc:format>
        <dc:type
           rdf:resource="http://purl.org/dc/dcmitype/StillImage" />
        <dc:title></dc:title>
      </cc:Work>
    </rdf:RDF>
  </metadata>
  <g
     transform="translate(0,-146.18749)"
     id="layer1">
    <rect
       mask="none"
       ry="1.5875"
       rx="1.5875"
       y="146.18748"
       x="0"
       height="150.8125"
       width="85.724998"
       id="rect4749"
       style="fill:#242424;fill-rule:evenodd;stroke-width:211.1958313;stroke-linecap:square;stroke-linejoin:round;paint-order:stroke markers fill" />
    <image
       xlink:href="icon-app-192.png"
       y="146.18748"
       x="0"
       id="avatarBig"
       style="image-rendering:optimizeQuality"
       preserveAspectRatio="none"
       height="85.724998"
       width="85.724998"
       mask="url(#mask4799)" />
    <image
       xlink:href="icon-app-192.png"
       y="239.84999"
       x="6.3499999"
       id="avatarSmall"
       style="image-rendering:optimizeQuality"
       preserveAspectRatio="none"
       height="12.7"
       width="12.7"
       mask="url(#mask4803)" />
  </g>
  <g
     transform="translate(0,95.812503)"
     id="layer2">
    <text
       id="username"
       y="5.9811115"
       x="25.420326"
       style="font-weight:bold;font-size:6.3499999px;line-height:1.25;font-family:'Segoe UI';-inkscape-font-specification:'Russo One Bold';letter-spacing:0px;word-spacing:0px;fill:white;stroke-width:0.26458332"
       xml:space="preserve"></text>
    <text
       id="discord"
       y="13.735332"
       x="33.350937"
       style="font-size:5.64444447px;line-height:1.25;font-family:'Segoe UI';-inkscape-font-specification:Arial;letter-spacing:0px;word-spacing:0px;fill:white;stroke-width:0.26458332"
       xml:space="preserve"></text>
    <path
       style="fill:#7289da;stroke-width:0.00826823"
       d="m 30.2387,12.56083 c 0,0.129117 -0.09525,0.23495 -0.2159,0.23495 -0.118533,0 -0.2159,-0.105833 -0.2159,-0.23495 0,-0.129117 0.09525,-0.23495 0.2159,-0.23495 0.12065,0 0.2159,0.105833 0.2159,0.23495 z m -0.988483,-0.23495 c -0.12065,0 -0.2159,0.105833 -0.2159,0.23495 0,0.129117 0.09737,0.23495 0.2159,0.23495 0.12065,0 0.2159,-0.105833 0.2159,-0.23495 0.0021,-0.129117 -0.09525,-0.23495 -0.2159,-0.23495 z m 2.2352,-1.33985 v 3.7973 c -0.533251,-0.471239 -0.362711,-0.315251 -0.982133,-0.891116 l 0.112183,0.391583 h -2.4003 c -0.239183,0 -0.433917,-0.194733 -0.433917,-0.436033 V 10.98603 c 0,-0.2413 0.194734,-0.436033 0.433917,-0.436033 H 31.0515 c 0.239184,0 0.433917,0.194733 0.433917,0.436033 z m -0.60325,2.0066 c 0,-0.681567 -0.3048,-1.234017 -0.3048,-1.234017 -0.3048,-0.2286 -0.594783,-0.22225 -0.594783,-0.22225 l -0.02963,0.03387 c 0.359834,0.110067 0.52705,0.268817 0.52705,0.268817 -0.502799,-0.275572 -1.093424,-0.275622 -1.58115,-0.06138 -0.07832,0.03598 -0.124883,0.06138 -0.124883,0.06138 0,0 0.175683,-0.167217 0.556683,-0.277284 l -0.02117,-0.0254 c 0,0 -0.289984,-0.0063 -0.594784,0.22225 0,0 -0.3048,0.55245 -0.3048,1.234017 0,0 0.1778,0.306917 0.645584,0.321734 0,0 0.07832,-0.09525 0.141816,-0.175684 -0.268816,-0.08043 -0.370416,-0.249767 -0.370416,-0.249767 0.03114,0.0218 0.08248,0.05005 0.08678,0.05292 0.35727,0.200075 0.864758,0.265625 1.3208,0.07408 0.07408,-0.02752 0.156633,-0.06773 0.243417,-0.124883 0,0 -0.105834,0.173567 -0.383117,0.251884 0.0635,0.08043 0.1397,0.17145 0.1397,0.17145 0.467783,-0.01482 0.6477,-0.321734 0.6477,-0.321734 z"
       id="path4762" />
    <g
       style="display:none"
       transform="matrix(0.01697828,0,0,0.01697828,52.886527,2.0554427)"
       id="g4792">
      <circle
         class="cls-1"
         cx="127"
         cy="127"
         r="127"
         id="circle8"
         style="display:none;fill:#2d2d2d" />
      <path
         class="cls-2"
         d="m 181,73 c -5.11,2.7 -9.56,5.35 -14.25,7.45 -3.63,1.61 -7.35,0.89 -10.74,-1.27 -7.32,-4.65 -14.68,-9.23 -22,-13.93 -3.22,-2.07 -6.44,-2.63 -9.88,-0.8 q -19.51,10.41 -39,20.87 c -2.27,1.22 -2.42,2.46 -0.13,3.89 q 19.41,12.15 38.78,24.37 c 2.7,1.72 5.15,1.24 7.67,-0.12 l 53.29,-28.7 c 1.37,-0.73 2.72,-1.49 4.13,-2.15 5,-2.33 6.5,-2.35 9.12,2.41 a 26.81,26.81 0 0 1 3.59,12.35 c -0.06,16.41 -0.79,32.82 -1.34,49.24 -0.19,5.67 -0.39,11.36 -0.93,17 a 15.29,15.29 0 0 1 -8,12.25 c -14.47,8 -29.13,15.75 -43.72,23.57 a 12.18,12.18 0 0 1 -2.23,0.42 c 0.45,-6.25 0.48,-12.16 1.65,-17.87 0.48,-2.31 3.19,-4.68 5.47,-6 8.16,-4.76 16.51,-9.19 24.9,-13.52 2.92,-1.5 3.93,-3.4 4,-6.68 0.29,-14.72 0.89,-29.44 1.37,-44.16 0.11,-3.24 -1.15,-4.19 -4,-2.67 -13.48,7.17 -26.95,14.35 -40.26,21.8 -1.43,0.8 -2.62,3.31 -2.69,5.07 -0.69,16.68 -1,33.37 -1.51,50.05 q -0.26,8.72 -0.66,17.43 c -0.13,2.9 -1.41,4.87 -4.5,5.41 -5.29,0.94 -10.26,0.42 -14.92,-2.5 -16.77,-10.53 -33.43,-21.25 -50.45,-31.38 -8.9,-5.29 -12.91,-12.41 -12.41,-22.7 0.71,-14.72 1,-29.46 1.54,-44.2 a 18,18 0 0 1 0.45,-2.57 c 6.24,5.53 15.47,6.73 17.41,15.88 0.83,3.95 0.09,8.24 0,12.36 -0.13,6.6 -0.42,13.2 -0.32,19.8 0,1.56 0.89,3.79 2.09,4.56 13.19,8.44 26.54,16.65 39.83,24.89 a 13.54,13.54 0 0 0 2.72,0.82 c 0.29,-4.53 0.65,-8.72 0.8,-12.92 0.41,-12 0.87,-24.05 1,-36.08 a 6.82,6.82 0 0 0 -2.84,-4.94 C 98.72,119.9 83.22,110.29 67.75,100.6 63.75,98.06 59.52,95.69 55.68,92.87 A 5.13,5.13 0 0 1 54,88.51 18.53,18.53 0 0 1 63.46,75.9 Q 91.21,61.05 118.89,46.19 c 7,-3.76 13.89,-3.62 20.63,0.56 q 19.62,12.21 39.18,24.5 c 0.54,0.33 1.03,0.75 2.3,1.75 z"
         id="path10"
         style="display:none;fill:#535aa2" />
      <g
         id="layer1-7">
        <rect
           style="display:none;fill:#535aa2;fill-rule:evenodd;stroke-width:480;stroke-linecap:square;stroke-linejoin:round;paint-order:stroke markers fill"
           id="rect4762"
           width="254"
           height="254"
           x="0"
           y="0"
           ry="25"
           rx="25" />
      </g>
      <path
         style="display:none;fill:white;stroke-width:1.27628148"
         id="path4764"
         d="m 196.07276,58.270972 c -6.52181,3.44596 -12.20126,6.828106 -18.18703,9.508297 -4.63289,2.054814 -9.38065,1.13589 -13.70726,-1.620877 -9.34238,-5.93471 -18.7358,-11.780078 -28.07819,-17.778602 -4.10963,-2.641903 -8.21925,-3.356622 -12.60966,-1.021026 Q 98.590371,60.644855 73.715636,73.994761 c -2.89716,1.557063 -3.088602,3.139651 -0.165917,4.964735 Q 98.322342,94.46632 123.04392,110.06249 c 3.44596,2.19519 6.57285,1.58258 9.78908,-0.15316 l 68.01304,-36.629287 c 1.7485,-0.931685 3.47149,-1.901659 5.27104,-2.744006 6.38141,-2.973735 8.29583,-2.999262 11.6397,3.075838 a 34.217108,34.217108 0 0 1 4.58185,15.762079 c -0.0765,20.943776 -1.00826,41.887556 -1.71022,62.844106 -0.2425,7.23652 -0.49775,14.49856 -1.18695,21.69678 a 19.514344,19.514344 0 0 1 -10.21025,15.63446 c -18.46778,10.21025 -37.17808,20.10143 -55.79903,30.08195 a 15.54511,15.54511 0 0 1 -2.8461,0.53604 c 0.57432,-7.97676 0.61261,-15.51958 2.10586,-22.80715 0.61261,-2.94821 4.07134,-5.973 6.98126,-7.65768 10.41446,-6.07511 21.0714,-11.72904 31.77942,-17.25533 3.72674,-1.91443 5.01577,-4.33936 5.10512,-8.52557 0.37012,-18.78686 1.13588,-37.57373 1.7485,-56.36059 0.1404,-4.13515 -1.46772,-5.34762 -5.10513,-3.40767 -17.20427,9.15094 -34.39578,18.31464 -51.3831,27.82293 -1.82507,1.02102 -3.34386,4.2245 -3.43318,6.47076 -0.88065,21.28836 -1.27629,42.5895 -1.92719,63.87788 q -0.33184,11.12918 -0.84235,22.24559 c -0.1659,3.70123 -1.79955,6.21549 -5.74327,6.90469 -6.75152,1.1997 -13.09465,0.53603 -19.04211,-3.1907 C 89.426662,214.8452 68.16381,201.16346 46.441498,188.23472 35.082592,181.4832 29.964703,172.39608 30.602845,159.26314 c 0.906159,-18.78686 1.276281,-37.59926 1.965473,-56.41165 a 22.973068,22.973068 0 0 1 0.574327,-3.280043 c 7.963996,7.057833 19.744076,8.589363 22.220062,20.267363 1.059313,5.0413 0.114859,10.51656 0,15.77483 -0.165917,8.42347 -0.536039,16.84692 -0.40841,25.27038 0,1.99099 1.135891,4.8371 2.667428,5.81985 16.834154,10.7718 33.872512,21.25008 50.834295,31.76664 a 17.280853,17.280852 0 0 0 3.47148,1.04654 c 0.37013,-5.78155 0.8296,-11.12917 1.02103,-16.48956 0.52329,-15.31538 1.11037,-30.69456 1.27628,-46.04824 a 8.7042402,8.7042402 0 0 0 -3.62464,-6.30482 C 91.060302,118.12859 71.277937,105.86352 51.533863,93.496343 46.428737,90.254588 41.030065,87.2298 36.129144,83.630687 A 6.5473245,6.5473243 0 0 1 33.98499,78.066099 23.649498,23.649498 0 0 1 46.058614,61.972188 Q 81.475428,43.019407 116.8029,24.053863 c 8.93398,-4.798818 17.72756,-4.62014 26.32969,0.714718 q 25.04064,15.583398 50.00472,31.268897 c 0.68919,0.421173 1.31457,0.957212 2.93545,2.233494 z"
         class="cls-2" />
      <path
         class="cls-2"
         d="m 208.56443,46.064167 c -7.69186,4.06418 -14.39022,8.053097 -21.44986,11.214127 -5.46406,2.423457 -11.0636,1.339675 -16.16641,-1.911669 C 159.92971,48.3672 148.85107,41.473148 137.83261,34.398463 132.9857,31.282589 128.13879,30.439646 122.96072,33.19426 Q 93.59326,48.863934 64.255885,64.608873 c -3.416923,1.836408 -3.642711,3.70292 -0.195683,5.855432 q 29.216944,18.288818 58.373678,36.683005 c 4.0642,2.58903 7.75207,1.8665 11.54529,-0.18064 l 80.21489,-43.200737 c 2.06217,-1.098834 4.09428,-2.242827 6.21667,-3.236293 7.52629,-3.507237 9.78415,-3.537343 13.72793,3.627656 a 40.355811,40.355811 0 0 1 5.40386,18.589866 c -0.0902,24.701178 -1.18915,49.402368 -2.01704,74.118618 -0.28602,8.53478 -0.58705,17.09968 -1.39991,25.58929 a 23.015305,23.015305 0 0 1 -12.04201,18.43935 c -21.78099,12.04199 -43.84799,23.70772 -65.80961,35.47878 a 18.333971,18.333971 0 0 1 -3.35672,0.63221 c 0.67736,-9.40782 0.72253,-18.30387 2.48366,-26.89885 0.72253,-3.47714 4.80176,-7.0446 8.23374,-9.0315 12.28285,-7.16503 24.85171,-13.83329 37.48079,-20.35102 4.39533,-2.25789 5.91561,-5.11784 6.02101,-10.05508 0.43651,-22.15733 1.33964,-44.31465 2.06217,-66.47193 0.1656,-4.877034 -1.73104,-6.307031 -6.02101,-4.01904 -20.29078,10.79266 -40.56654,21.60035 -60.60146,32.8145 -2.15251,1.20418 -3.94374,4.98239 -4.04911,7.63164 -1.03863,25.10757 -1.50527,50.23024 -2.27293,75.33784 q -0.39137,13.12582 -0.99348,26.23657 c -0.19565,4.36523 -2.1224,7.33057 -6.77363,8.1434 -7.96277,1.41495 -15.44389,0.63222 -22.45835,-3.76312 -25.243089,-15.85031 -50.320594,-31.9866 -75.939986,-47.23483 -13.396743,-7.96276 -19.432805,-18.68017 -18.680178,-34.16922 1.068728,-22.1573 1.505251,-44.34473 2.318088,-66.532143 a 27.094539,27.094539 0 0 1 0.677364,-3.868494 c 9.392772,8.324047 23.286251,10.130327 26.206441,23.903417 1.249359,5.94573 0.135464,12.4033 0,18.60489 -0.195684,9.9347 -0.632207,19.86936 -0.481682,29.80401 0,2.34819 1.339675,5.70492 3.145978,6.86396 19.854278,12.70432 39.949391,25.06243 59.954205,37.46572 a 20.381116,20.381115 0 0 0 4.09426,1.23429 c 0.43654,-6.81878 0.97844,-13.12579 1.20421,-19.44786 0.61717,-18.06303 1.30958,-36.20131 1.50525,-54.3095 a 10.265819,10.265819 0 0 0 -4.27489,-7.43592 C 84.712263,116.66052 61.380853,102.19503 38.094603,87.609128 32.073595,83.785787 25.706376,80.218337 19.926209,75.973528 A 7.721944,7.7219438 0 0 1 17.397383,69.410629 27.892325,27.892325 0 0 1 31.637069,50.429397 Q 73.40782,28.076402 115.0732,5.7083544 c 10.53678,-5.65974813 20.90796,-5.44901436 31.05335,0.8429409 Q 175.6596,24.930426 205.10234,43.429973 c 0.81283,0.496735 1.55041,1.128941 3.46209,2.634194 z"
         id="path4750"
         style="fill:#535aa2;stroke-width:1.50525224" />
    </g>
    <path
       id="path4794"
       d="M 4.2333333,21.133329 H 80.433332"
       style="fill:none;stroke:#59b0f4;stroke-width:0.75" />
    <text
       id="description"
       y="30.691404"
       x="6.005836"
       style="font-size:4.23333311px;line-height:1.25;font-family:'Segoe UI';-inkscape-font-specification:'Segoe UI';letter-spacing:0px;word-spacing:0px;fill:white;stroke-width:0.26458332"
       xml:space="preserve"></text>
  </g>
</svg>
