<?xml version="1.0" encoding="UTF-8" standalone="no"?>
<!-- Generator: Adobe Illustrator 23.1.0, SVG Export Plug-In . SVG Version: 6.00 Build 0)  -->

<svg
   xmlns:dc="http://purl.org/dc/elements/1.1/"
   xmlns:cc="http://creativecommons.org/ns#"
   xmlns:rdf="http://www.w3.org/1999/02/22-rdf-syntax-ns#"
   xmlns:svg="http://www.w3.org/2000/svg"
   xmlns="http://www.w3.org/2000/svg"
   xmlns:sodipodi="http://sodipodi.sourceforge.net/DTD/sodipodi-0.dtd"
   xmlns:inkscape="http://www.inkscape.org/namespaces/inkscape"
   version="1.1"
   id="Layer_1"
   x="0px"
   y="0px"
   viewBox="0 0 717.2 717.19999"
   xml:space="preserve"
   sodipodi:docname="ModelSaberLogoGradient.svg"
   inkscape:version="0.92.3 (2405546, 2018-03-11)"
   width="717.20001"
   height="717.20001"
   inkscape:export-filename="D:\Modelsaber\icon-512.png"
   inkscape:export-xdpi="68.53318"
   inkscape:export-ydpi="68.53318"><metadata
   id="metadata24"><rdf:RDF><cc:Work
       rdf:about=""><dc:format>image/svg+xml</dc:format><dc:type
         rdf:resource="http://purl.org/dc/dcmitype/StillImage" /><dc:title></dc:title></cc:Work></rdf:RDF></metadata><defs
   id="defs22" /><sodipodi:namedview
   pagecolor="#ffffff"
   bordercolor="#666666"
   borderopacity="1"
   objecttolerance="10"
   gridtolerance="10"
   guidetolerance="10"
   inkscape:pageopacity="0"
   inkscape:pageshadow="2"
   inkscape:window-width="3840"
   inkscape:window-height="2035"
   id="namedview20"
   showgrid="false"
   inkscape:pagecheckerboard="true"
   inkscape:zoom="2.0140977"
   inkscape:cx="370.78094"
   inkscape:cy="361.27374"
   inkscape:window-x="-13"
   inkscape:window-y="-13"
   inkscape:window-maximized="1"
   inkscape:current-layer="Layer_1" />
<style
   type="text/css"
   id="style2">
	.st0{fill:url(#SVGID_1_);}
</style>
<linearGradient
   id="SVGID_1_"
   gradientUnits="userSpaceOnUse"
   x1="61.603699"
   y1="373.6525"
   x2="647.04163"
   y2="373.05869"
   gradientTransform="matrix(1,0.00101422,-0.00101422,1,4.6348836,-15.227116)">
	<stop
   offset="1.054068e-02"
   style="stop-color:#DC2DE2"
   id="stop4" />
	<stop
   offset="0.3269"
   style="stop-color:#972DE2"
   id="stop6" />
	<stop
   offset="0.4648"
   style="stop-color:#8F28E2"
   id="stop8" />
	<stop
   offset="0.6756"
   style="stop-color:#7A1BE1"
   id="stop10" />
	<stop
   offset="0.9318"
   style="stop-color:#5706E0"
   id="stop12" />
	<stop
   offset="1"
   style="stop-color:#4D00E0"
   id="stop14" />
</linearGradient>
<path
   class="st0"
   d="m 565.85198,141.82809 c -19.8,11.3 -37,22.3 -55.2,31.1 -14.1,6.8 -28.8,4.5 -42.4,-3.6 -29.4,-17.4 -58.9,-34.5 -88.2,-52 -12.9,-7.70001 -25.7,-9.50001 -39,-1.90001 -50.3,28.90001 -100.6,58.00001 -150.8,87.10001 -8.8,5.1 -9.2,10 0,15.3 52,30.2 103.9,60.4 155.7,91 10.9,6.4 20.4,4.2 30.2,-1.5 68.7,-39.9 137.4,-79.8 206.1,-119.7 5.3,-3.1 10.5,-6.2 16,-9 19.3,-9.8 25.3,-10.1 36.2,8.3 8.5,14.2 15.2,31.8 15.7,48.1 1.8,64.6 1.1,129.3 1,193.9 0,22.4 -0.1,44.8 -1.5,67.1 -1,20.4 -12.2,38.9 -29.8,49.2 -55.9,33.5 -112.6,65.7 -169,98.3 -2.8,0.9 -5.8,1.6 -8.7,2 1,-24.6 0.4,-47.9 4.3,-70.5 1.6,-9.2 12,-18.8 20.8,-24.3 31.5,-19.8 63.8,-38.3 96.3,-56.3 11.3,-6.3 15,-13.9 14.9,-26.8 -0.7,-58 -0.2,-116 -0.2,-174 0,-12.7 -5.1,-16.3 -16.2,-10 -52.1,29.9 -104.2,59.9 -155.7,90.9 -5.5,3.3 -9.9,13.4 -9.9,20.3 -0.6,65.7 0.2,131.4 0.4,197.2 0.1,22.9 -0.1,45.8 -0.4,68.7 -0.1,11.5 -4.9,19.4 -17,21.9 -20.7,4.3 -40.3,3 -59,-8 -67.7,-39.5 -134.6,-79.5 -202.9,-117.2 -35.699996,-19.7 -52.399996,-47.2 -51.699996,-87.8 0.9,-58 0.4,-116.1 0.5,-174.2 -0.2,-1.9 0.5,-3.8 1.4,-10.2 25.3,21 61.799996,24.5 70.499996,60.3 3.8,15.4 1.4,32.4 1.6,48.7 0.3,26 0,52 1.3,77.9 0.3,6.1 4,14.8 8.8,17.7 52.9,31.5 106.6,62.1 159.9,92.9 3.5,1.3 7.1,2.3 10.8,2.9 0.6,-17.9 1.4,-34.4 1.5,-50.9 0.1,-47.4 0.4,-94.7 -0.7,-142.1 -1,-7.8 -5.3,-14.8 -11.8,-19.1 -61.5,-36.7 -123.7,-72.6 -185.8,-108.7 -16.2,-9.5 -32.999996,-18.3 -48.499996,-28.9 -5,-4.2 -7.6,-10.5 -7.2,-17 3.7,-21.4 16.8,-40 35.599996,-50.8 71.6,-41.3 143,-82.600006 214.4,-123.900006 27.1,-15.7 54.2,-16 81.3,-0.4 52.5,30.4 104.9,60.899996 157.3,91.400006 2.1,1.2 4.1,2.9 9.1,6.6 z"
   id="path17"
   inkscape:connector-curvature="0"
   style="fill:url(#SVGID_1_)" />
</svg>